<mxfile host="app.diagrams.net" agent="Mozilla/5.0 (Windows NT 10.0; Win64; x64) AppleWebKit/537.36 (KHTML, like Gecko) Chrome/136.0.0.0 Safari/537.36 Edg/136.0.0.0" version="27.0.1">
  <diagram name="第 1 页" id="i5m17b8EzfQg5klJpfjE">
    <mxGraphModel dx="1111" dy="683" grid="1" gridSize="10" guides="1" tooltips="1" connect="1" arrows="1" fold="1" page="1" pageScale="1" pageWidth="827" pageHeight="1169" math="1" shadow="0">
      <root>
        <mxCell id="0" />
        <mxCell id="1" parent="0" />
        <mxCell id="mW5vK_5VpGZGRlMtQD_5-14" value="" style="rounded=0;whiteSpace=wrap;html=1;dashed=1;dashPattern=8 8;strokeColor=#A9C4EB;" vertex="1" parent="1">
          <mxGeometry x="176" y="200" width="88" height="46" as="geometry" />
        </mxCell>
        <mxCell id="mW5vK_5VpGZGRlMtQD_5-12" value="" style="rounded=0;whiteSpace=wrap;html=1;dashed=1;dashPattern=8 8;fillColor=none;strokeColor=#A9C4EB;" vertex="1" parent="1">
          <mxGeometry x="84" y="200" width="88" height="46" as="geometry" />
        </mxCell>
        <mxCell id="mW5vK_5VpGZGRlMtQD_5-1" value="&lt;font style=&quot;font-size: 18px;&quot;&gt;$$\omega_{m}^{j}$$&lt;/font&gt;" style="text;strokeColor=none;align=center;fillColor=none;html=1;verticalAlign=middle;whiteSpace=wrap;rounded=0;" vertex="1" parent="1">
          <mxGeometry x="147" y="213" width="20" height="20" as="geometry" />
        </mxCell>
        <mxCell id="mW5vK_5VpGZGRlMtQD_5-2" value="&lt;span style=&quot;color: rgb(0, 0, 0); font-family: Helvetica; font-style: normal; font-variant-ligatures: normal; font-variant-caps: normal; font-weight: 400; letter-spacing: normal; orphans: 2; text-align: center; text-indent: 0px; text-transform: none; widows: 2; word-spacing: 0px; -webkit-text-stroke-width: 0px; white-space: normal; background-color: rgb(236, 236, 236); text-decoration-thickness: initial; text-decoration-style: initial; text-decoration-color: initial; float: none; display: inline !important;&quot;&gt;&lt;font style=&quot;font-size: 18px;&quot;&gt;$$\psi_{m}^{j}$$&lt;/font&gt;&lt;/span&gt;" style="text;whiteSpace=wrap;html=1;" vertex="1" parent="1">
          <mxGeometry x="177" y="187" width="26" height="10" as="geometry" />
        </mxCell>
        <mxCell id="mW5vK_5VpGZGRlMtQD_5-4" value="" style="strokeWidth=2;html=1;shape=mxgraph.flowchart.annotation_2;align=left;labelPosition=right;pointerEvents=1;rotation=-90;strokeColor=#A9C4EB;" vertex="1" parent="1">
          <mxGeometry x="164" y="221.5" width="18" height="69" as="geometry" />
        </mxCell>
        <mxCell id="mW5vK_5VpGZGRlMtQD_5-6" value="EMA" style="text;strokeColor=none;align=center;fillColor=none;html=1;verticalAlign=middle;whiteSpace=wrap;rounded=0;" vertex="1" parent="1">
          <mxGeometry x="177" y="255.5" width="60" height="30" as="geometry" />
        </mxCell>
        <mxCell id="mW5vK_5VpGZGRlMtQD_5-7" value="&lt;font style=&quot;font-size: 18px;&quot;&gt;$$c_{m}$$&lt;/font&gt;" style="text;strokeColor=none;align=center;fillColor=none;html=1;verticalAlign=middle;whiteSpace=wrap;rounded=0;" vertex="1" parent="1">
          <mxGeometry x="217" y="260.5" width="60" height="30" as="geometry" />
        </mxCell>
        <mxCell id="mW5vK_5VpGZGRlMtQD_5-8" value="" style="endArrow=classic;html=1;rounded=0;strokeColor=#A9C4EB;" edge="1" parent="1">
          <mxGeometry width="50" height="50" relative="1" as="geometry">
            <mxPoint x="184" y="277" as="sourcePoint" />
            <mxPoint x="234" y="277" as="targetPoint" />
          </mxGeometry>
        </mxCell>
        <mxCell id="mW5vK_5VpGZGRlMtQD_5-9" value="&lt;font style=&quot;font-size: 18px;&quot;&gt;$$s_{m}^{j}$$&lt;/font&gt;" style="text;strokeColor=none;align=center;fillColor=none;html=1;verticalAlign=middle;whiteSpace=wrap;rounded=0;" vertex="1" parent="1">
          <mxGeometry x="143" y="262.5" width="60" height="30" as="geometry" />
        </mxCell>
        <mxCell id="mW5vK_5VpGZGRlMtQD_5-10" value="&lt;font style=&quot;font-size: 18px;&quot;&gt;类别&lt;/font&gt;&lt;div&gt;&lt;font style=&quot;font-size: 18px;&quot;&gt;置信度&lt;/font&gt;&lt;/div&gt;" style="text;strokeColor=none;align=center;fillColor=none;html=1;verticalAlign=middle;whiteSpace=wrap;rounded=0;" vertex="1" parent="1">
          <mxGeometry x="85" y="208" width="58" height="30" as="geometry" />
        </mxCell>
        <mxCell id="mW5vK_5VpGZGRlMtQD_5-11" value="&lt;font style=&quot;font-size: 18px;&quot;&gt;目标&lt;br&gt;&lt;/font&gt;&lt;div&gt;&lt;font style=&quot;font-size: 18px;&quot;&gt;置信度&lt;/font&gt;&lt;/div&gt;" style="text;strokeColor=none;align=center;fillColor=none;html=1;verticalAlign=middle;whiteSpace=wrap;rounded=0;" vertex="1" parent="1">
          <mxGeometry x="203" y="208" width="62" height="30" as="geometry" />
        </mxCell>
        <mxCell id="mW5vK_5VpGZGRlMtQD_5-17" value="$$\tau_{m} = \tau_{\text{base}} \cdot \left( \frac{c_m}{\mathbb{E}_{m\sim M} c_m} \right)^{\gamma_1}$$" style="text;whiteSpace=wrap;fontSize=18;" vertex="1" parent="1">
          <mxGeometry x="283" y="210" width="160" height="29" as="geometry" />
        </mxCell>
        <mxCell id="mW5vK_5VpGZGRlMtQD_5-19" value="" style="endArrow=classic;html=1;rounded=0;strokeColor=#A9C4EB;" edge="1" parent="1">
          <mxGeometry width="50" height="50" relative="1" as="geometry">
            <mxPoint x="255" y="277" as="sourcePoint" />
            <mxPoint x="281" y="277" as="targetPoint" />
          </mxGeometry>
        </mxCell>
        <mxCell id="mW5vK_5VpGZGRlMtQD_5-20" value="" style="rounded=0;whiteSpace=wrap;html=1;dashed=1;dashPattern=8 8;fillColor=none;strokeColor=#A9C4EB;" vertex="1" parent="1">
          <mxGeometry x="283" y="227" width="245" height="62" as="geometry" />
        </mxCell>
        <mxCell id="mW5vK_5VpGZGRlMtQD_5-21" value="" style="endArrow=classic;html=1;rounded=0;strokeColor=#A9C4EB;" edge="1" parent="1">
          <mxGeometry width="50" height="50" relative="1" as="geometry">
            <mxPoint x="530" y="274.08000000000004" as="sourcePoint" />
            <mxPoint x="556" y="274.08000000000004" as="targetPoint" />
          </mxGeometry>
        </mxCell>
        <mxCell id="mW5vK_5VpGZGRlMtQD_5-22" value="" style="rounded=0;whiteSpace=wrap;html=1;dashed=1;dashPattern=8 8;fillColor=none;strokeColor=#FF6666;" vertex="1" parent="1">
          <mxGeometry x="560" y="257.5" width="80" height="27" as="geometry" />
        </mxCell>
        <mxCell id="mW5vK_5VpGZGRlMtQD_5-23" value="&lt;span style=&quot;color: rgb(0, 0, 0); font-family: Helvetica; font-style: normal; font-variant-ligatures: normal; font-variant-caps: normal; font-weight: 400; letter-spacing: normal; orphans: 2; text-align: center; text-indent: 0px; text-transform: none; widows: 2; word-spacing: 0px; -webkit-text-stroke-width: 0px; white-space: normal; background-color: rgb(236, 236, 236); text-decoration-thickness: initial; text-decoration-style: initial; text-decoration-color: initial; float: none; display: inline !important;&quot;&gt;&lt;font style=&quot;font-size: 18px;&quot;&gt;$$s_{m}^{j}\geq \tau_{m}$$&lt;/font&gt;&lt;/span&gt;" style="text;whiteSpace=wrap;html=1;" vertex="1" parent="1">
          <mxGeometry x="560" y="235" width="70" height="20" as="geometry" />
        </mxCell>
      </root>
    </mxGraphModel>
  </diagram>
</mxfile>
